<?xml version="1.0" encoding="utf-8"?>
<!-- Generator: Adobe Illustrator 25.2.3, SVG Export Plug-In . SVG Version: 6.00 Build 0)  -->
<svg version="1.1" xmlns="http://www.w3.org/2000/svg" xmlns:xlink="http://www.w3.org/1999/xlink" x="0px" y="0px"
	 viewBox="0 0 40 40" style="enable-background:new 0 0 40 40;" xml:space="preserve">
<style type="text/css">
	.st0{fill:#5CA5FF;}
	.st1{fill:#0A0B09;}
	.st2{fill:#D7252C;}
	.st3{clip-path:url(#SVGID_2_);}
	.st4{clip-path:url(#SVGID_2_);fill:none;stroke:#FFFFFF;stroke-width:0.5;stroke-miterlimit:10;}
	.st5{clip-path:url(#SVGID_2_);fill:#FFFFFF;}
</style>
<g id="Layer_1">
	<path class="st0" d="M35.9146,38.1741H4.0854c-1.2479,0-2.2595-1.0116-2.2595-2.2595V4.0854c0-1.2479,1.0116-2.2595,2.2595-2.2595
		h31.8291c1.2479,0,2.2595,1.0116,2.2595,2.2595v31.8291C38.1741,37.1625,37.1625,38.1741,35.9146,38.1741z"/>
</g>
<g id="Layer_2">
	<g>
		<path class="st1" d="M36.0109,17.0986v-1.2867c0-1.408-1.1519-2.5602-2.5602-2.5602H6.5493c-1.408,0-2.5602,1.1522-2.5602,2.5602
			v1.2867c-0.596,0.3657-0.9972,1.0214-0.9972,1.7681v3.4421c0,0.7467,0.4012,1.4027,0.9972,1.7684v1.3354
			c0,1.408,1.1522,2.5602,2.5602,2.5602h26.9014c1.4083,0,2.5602-1.1522,2.5602-2.5602v-1.3354
			c0.5963-0.3657,0.9972-1.0217,0.9972-1.7684v-3.4421C37.0081,18.1199,36.6073,17.464,36.0109,17.0986z M20.1007,0
			C12.8504,0,6.8693,5.4173,5.9735,12.4241h28.2544C33.3321,5.4173,27.351,0,20.1007,0z M15.7439,31.5229h8.4105l0.8587,0.9942
			l1.2917-1.1155l-1.3692-1.5856h-9.9732l-1.3692,1.5856l1.2917,1.1155L15.7439,31.5229z M30.3071,28.491v5.4457
			c0,1.4968-1.2248,2.7215-2.7216,2.7215h-1.4812V36.653c-0.3243,0-0.6106-0.1517-0.8014-0.3846h-0.0036l-1.7711-2.2624
			l-0.002,0.0017c-0.1892-0.2452-0.482-0.4062-0.815-0.4085c-0.0023,0-0.0043-0.0007-0.0066-0.0007
			c-0.002,0-0.004,0.0007-0.0063,0.0007h-5.1277c-0.0023,0-0.0043-0.0007-0.0063-0.0007c-0.0023,0-0.0043,0.0007-0.0066,0.0007
			c-0.3084,0.002-0.5817,0.1408-0.7712,0.3555l-0.0036-0.0017l-1.8125,2.3154h-0.0027c-0.1908,0.2329-0.4771,0.3846-0.8014,0.3846
			v0.0053h-1.4825c-1.4968,0-2.7216-1.2248-2.7216-2.7215V28.491H6.6361v5.4613C6.6361,37.2785,9.3576,40,12.6838,40h14.9028
			c3.3265,0,6.0477-2.7215,6.0477-6.0477V28.491H30.3071z"/>
		<path class="st2" d="M31.0001,22.2726h-22c-1.039,0-1.8891-0.8501-1.8891-1.8891c0-1.039,0.8501-1.8891,1.8891-1.8891h22
			c1.0387,0,1.8888,0.8501,1.8888,1.8891C32.889,21.4225,32.0389,22.2726,31.0001,22.2726"/>
	</g>
</g>
<g id="Layer_3">
	<g>
		<path d="M10.0723,19.2275l0.8604,2.3008h-0.5249l-0.1743-0.5127H9.373l-0.1802,0.5127H8.6836l0.8701-2.3008H10.0723z
			 M10.1016,20.6387l-0.29-0.8442H9.8052l-0.2998,0.8442H10.1016z"/>
	</g>
	<g>
		<defs>
			<rect id="SVGID_1_" width="39.9334" height="39.9334"/>
		</defs>
		<clipPath id="SVGID_2_">
			<use xlink:href="#SVGID_1_"  style="overflow:visible;"/>
		</clipPath>
		<polygon class="st3" points="30.2129,21.4906 31.4913,19.2763 28.9345,19.2763 		"/>
		<line class="st4" x1="12.0826" y1="21.8867" x2="12.0826" y2="18.8802"/>
		<path class="st5" d="M59.0506,55.297H8.6397c-0.8443,0-1.5287-0.6844-1.5287-1.5287V26.0984c0-0.8443,0.6844-1.5287,1.5287-1.5287
			h50.4109c0.8443,0,1.5287,0.6844,1.5287,1.5287v27.6699C60.5793,54.6126,59.8949,55.297,59.0506,55.297z"/>
		<g class="st3">
			<path d="M11.2285,27.3633l0.8901,2.6152h0.0103l0.8418-2.6152h1.1777v3.8037h-0.7832v-2.6963h-0.0107l-0.9321,2.6963h-0.645
				l-0.9321-2.6689h-0.0107v2.6689h-0.7832v-3.8037H11.2285z"/>
			<path d="M15.6138,30.5059c0.1133,0.1104,0.2769,0.166,0.4902,0.166c0.1523,0,0.2842-0.0381,0.394-0.1152
				c0.1099-0.0762,0.1777-0.1572,0.2026-0.2422h0.666c-0.1069,0.3301-0.27,0.5664-0.4902,0.709
				c-0.2202,0.1416-0.4868,0.2129-0.7993,0.2129c-0.2168,0-0.4121-0.0352-0.5859-0.1035c-0.1743-0.0693-0.3218-0.168-0.4424-0.2959
				s-0.2139-0.2812-0.2798-0.458c-0.0654-0.1777-0.0986-0.373-0.0986-0.5869c0-0.2051,0.0337-0.3975,0.1016-0.5752
				c0.0674-0.1777,0.1631-0.3311,0.2876-0.4609c0.1245-0.1289,0.2725-0.2314,0.4448-0.3057
				c0.1724-0.0752,0.3633-0.1123,0.5728-0.1123c0.2344,0,0.4385,0.0449,0.6128,0.1357c0.1738,0.0908,0.3169,0.2119,0.4287,0.3652
				c0.1118,0.1523,0.1929,0.3271,0.2427,0.5225s0.0674,0.3994,0.0532,0.6123h-1.9873C15.438,30.2188,15.5,30.3965,15.6138,30.5059z
				 M16.4688,29.0576c-0.0903-0.0996-0.228-0.1494-0.4131-0.1494c-0.1206,0-0.2207,0.0205-0.3008,0.0615
				c-0.0801,0.04-0.144,0.0908-0.1919,0.1514s-0.0815,0.124-0.1011,0.1914c-0.0195,0.0684-0.0312,0.1279-0.0347,0.1816h1.2305
				C16.6226,29.3018,16.5596,29.1562,16.4688,29.0576z"/>
			<path d="M19.375,28.4121v0.5068h-0.5542v1.3633c0,0.1279,0.0215,0.2139,0.064,0.2559c0.043,0.043,0.1279,0.0645,0.2559,0.0645
				c0.0425,0,0.0835-0.002,0.1226-0.0059c0.0391-0.0029,0.0762-0.0088,0.1118-0.0156v0.5859
				c-0.064,0.0107-0.1348,0.0176-0.2129,0.0215c-0.0781,0.0029-0.1548,0.0049-0.2295,0.0049c-0.1172,0-0.228-0.0078-0.333-0.0234
				c-0.1045-0.0166-0.1968-0.0469-0.2769-0.0938c-0.0801-0.0459-0.1431-0.1113-0.189-0.1973
				c-0.0464-0.085-0.0693-0.1963-0.0693-0.335v-1.625H17.606v-0.5068h0.4585v-0.8252h0.7563v0.8252H19.375z"/>
			<path d="M20.4561,28.4121v0.5117h0.0107c0.0356-0.085,0.0835-0.1641,0.144-0.2373c0.0601-0.0723,0.1294-0.1348,0.2075-0.1865
				c0.0781-0.0508,0.1616-0.0908,0.251-0.1191c0.0889-0.0283,0.1807-0.043,0.2764-0.043c0.0498,0,0.1055,0.0088,0.166,0.0264v0.7031
				c-0.0361-0.0068-0.0781-0.0127-0.1279-0.0186c-0.0498-0.0049-0.0977-0.0078-0.1445-0.0078c-0.1377,0-0.2554,0.0234-0.3516,0.0693
				c-0.0957,0.0459-0.1733,0.1094-0.2319,0.1895s-0.1001,0.1729-0.125,0.2793s-0.0371,0.2227-0.0371,0.3467v1.2412h-0.7568v-2.7549
				H20.4561z"/>
			<path d="M21.8311,27.9863v-0.623h0.7568v0.623H21.8311z M22.5879,28.4121v2.7549h-0.7568v-2.7549H22.5879z"/>
			<path d="M24.501,28.9082c-0.1211,0-0.2217,0.0273-0.3037,0.082c-0.082,0.0557-0.1484,0.126-0.1992,0.2139
				c-0.0518,0.0869-0.0879,0.1826-0.1094,0.2871s-0.0322,0.209-0.0322,0.3115c0,0.0996,0.0107,0.2012,0.0322,0.3037
				c0.0215,0.1035,0.0557,0.1963,0.1035,0.2803c0.0479,0.083,0.1133,0.1514,0.1943,0.2051c0.082,0.0527,0.1816,0.0801,0.2988,0.0801
				c0.1807,0,0.3203-0.0508,0.418-0.1523s0.1592-0.2373,0.1836-0.4072h0.7305c-0.0498,0.3652-0.1924,0.6445-0.4268,0.8359
				c-0.2344,0.1924-0.5342,0.2881-0.9004,0.2881c-0.2061,0-0.3945-0.0352-0.5674-0.1035c-0.1719-0.0693-0.3184-0.166-0.4395-0.291
				c-0.1211-0.124-0.2148-0.2725-0.2822-0.4443c-0.0674-0.1729-0.1016-0.3613-0.1016-0.5674c0-0.2139,0.0312-0.4111,0.0938-0.5947
				c0.0615-0.1826,0.1533-0.3408,0.2744-0.4736c0.1201-0.1338,0.2676-0.2373,0.4424-0.3115
				c0.1738-0.0752,0.3721-0.1123,0.5967-0.1123c0.1631,0,0.3203,0.0215,0.4707,0.0635c0.1514,0.043,0.2861,0.1084,0.4053,0.1953
				s0.2158,0.1953,0.29,0.3242c0.0752,0.1299,0.1172,0.2832,0.1279,0.4609h-0.7402C25.0107,29.0664,24.8242,28.9082,24.501,28.9082z
				"/>
			<path d="M26.8799,30.4824c0.0332,0.0586,0.0771,0.1064,0.1299,0.1436c0.0537,0.0371,0.1152,0.0654,0.1836,0.083
				c0.0693,0.0176,0.1416,0.0264,0.2158,0.0264c0.0537,0,0.1094-0.0059,0.168-0.0186s0.1123-0.0322,0.1602-0.0586
				s0.0879-0.0625,0.1201-0.1064c0.0312-0.0449,0.0479-0.1006,0.0479-0.168c0-0.1133-0.0762-0.1992-0.2266-0.2559
				c-0.1514-0.0566-0.3613-0.1133-0.6318-0.1699c-0.1094-0.0254-0.2168-0.0547-0.3223-0.0879
				c-0.1045-0.0342-0.1973-0.0781-0.2793-0.1338c-0.082-0.0547-0.1475-0.124-0.1973-0.208
				c-0.0498-0.083-0.0742-0.1855-0.0742-0.3057c0-0.1777,0.0342-0.3232,0.1035-0.4375c0.0693-0.1133,0.1611-0.2031,0.2744-0.2686
				s0.2412-0.1123,0.3838-0.1387c0.1416-0.0264,0.2871-0.04,0.4365-0.04s0.2939,0.0146,0.4346,0.043s0.2656,0.0762,0.376,0.1436
				c0.1094,0.0674,0.2012,0.1572,0.2734,0.2686c0.0732,0.1123,0.1172,0.2539,0.1309,0.4238h-0.7188
				c-0.0107-0.1455-0.0664-0.2441-0.166-0.2959c-0.0986-0.0508-0.2158-0.0771-0.3516-0.0771c-0.042,0-0.0889,0.0029-0.1377,0.0078
				c-0.0498,0.0059-0.0957,0.0176-0.1367,0.0352c-0.04,0.0176-0.0752,0.0439-0.1035,0.0771
				c-0.0283,0.0342-0.043,0.0791-0.043,0.1357c0,0.0674,0.0254,0.123,0.0752,0.165c0.0498,0.043,0.1143,0.0771,0.1943,0.1045
				c0.0801,0.0264,0.1709,0.0508,0.2744,0.0713c0.1025,0.0215,0.208,0.0449,0.3145,0.0693
				c0.1094,0.0254,0.2178,0.0557,0.3223,0.0908s0.1982,0.083,0.2793,0.1416c0.082,0.0586,0.1475,0.1309,0.1973,0.2178
				s0.0752,0.1943,0.0752,0.3223c0,0.1816-0.0371,0.333-0.1094,0.4561c-0.0732,0.1221-0.168,0.2207-0.2852,0.2959
				c-0.1172,0.0742-0.252,0.127-0.4023,0.1572c-0.1514,0.0293-0.3047,0.0449-0.4609,0.0449c-0.1602,0-0.3164-0.0156-0.4688-0.0479
				c-0.1533-0.0322-0.2891-0.085-0.4082-0.1602c-0.1182-0.0742-0.2158-0.1729-0.293-0.2959
				c-0.0762-0.1221-0.1182-0.2754-0.125-0.4609h0.7197C26.8291,30.3535,26.8457,30.4238,26.8799,30.4824z"/>
			<path d="M30.8516,27.2725l-1.4863,3.9795h-0.6025l1.4814-3.9795H30.8516z"/>
			<path class="st0" d="M33.0576,27.3633l1.4219,3.8037h-0.8682l-0.2881-0.8467h-1.4219l-0.2988,0.8467h-0.8418l1.4385-3.8037
				H33.0576z M33.1055,29.6963l-0.4795-1.3955h-0.0107l-0.4961,1.3955H33.1055z"/>
			<path d="M35.4863,27.3633v1.3848h0.0107c0.0928-0.1416,0.2178-0.2461,0.376-0.3115s0.3223-0.0986,0.4932-0.0986
				c0.1377,0,0.2744,0.0283,0.4102,0.085c0.1348,0.0576,0.2559,0.1445,0.3643,0.2617s0.1963,0.2666,0.2637,0.4502
				c0.0674,0.1826,0.1016,0.4004,0.1016,0.6523s-0.0342,0.4697-0.1016,0.6523c-0.0674,0.1836-0.1553,0.333-0.2637,0.4502
				s-0.2295,0.2041-0.3643,0.2617c-0.1357,0.0566-0.2725,0.085-0.4102,0.085c-0.2031,0-0.3838-0.0322-0.5439-0.0957
				c-0.1602-0.0645-0.2803-0.1729-0.3623-0.3252h-0.0107v0.3516h-0.7188v-3.8037H35.4863z M36.7119,29.457
				c-0.0244-0.1064-0.0635-0.2012-0.1172-0.2822c-0.0527-0.082-0.1201-0.1465-0.1992-0.1953
				c-0.0801-0.0479-0.1768-0.0713-0.291-0.0713c-0.1104,0-0.2061,0.0234-0.2871,0.0713c-0.082,0.0488-0.1494,0.1133-0.2031,0.1953
				c-0.0527,0.0811-0.0918,0.1758-0.1172,0.2822c-0.0244,0.1064-0.0371,0.2178-0.0371,0.335c0,0.1143,0.0127,0.2246,0.0371,0.3311
				c0.0254,0.1064,0.0645,0.2002,0.1172,0.2822c0.0537,0.082,0.1211,0.1465,0.2031,0.1943
				c0.0811,0.0479,0.1768,0.0723,0.2871,0.0723c0.1143,0,0.2109-0.0244,0.291-0.0723c0.0791-0.0479,0.1465-0.1123,0.1992-0.1943
				c0.0537-0.082,0.0928-0.1758,0.1172-0.2822c0.0254-0.1064,0.0371-0.2168,0.0371-0.3311
				C36.749,29.6748,36.7373,29.5635,36.7119,29.457z"/>
			<path d="M39.3008,28.9082c-0.1211,0-0.2217,0.0273-0.3037,0.082c-0.082,0.0557-0.1484,0.126-0.1992,0.2139
				c-0.0518,0.0869-0.0879,0.1826-0.1094,0.2871s-0.0322,0.209-0.0322,0.3115c0,0.0996,0.0107,0.2012,0.0322,0.3037
				c0.0215,0.1035,0.0557,0.1963,0.1035,0.2803c0.0479,0.083,0.1133,0.1514,0.1943,0.2051c0.082,0.0527,0.1816,0.0801,0.2988,0.0801
				c0.1807,0,0.3203-0.0508,0.418-0.1523s0.1592-0.2373,0.1836-0.4072h0.7305c-0.0498,0.3652-0.1924,0.6445-0.4268,0.8359
				c-0.2344,0.1924-0.5342,0.2881-0.9004,0.2881c-0.2061,0-0.3945-0.0352-0.5674-0.1035c-0.1719-0.0693-0.3184-0.166-0.4395-0.291
				c-0.1211-0.124-0.2148-0.2725-0.2822-0.4443c-0.0674-0.1729-0.1016-0.3613-0.1016-0.5674c0-0.2139,0.0312-0.4111,0.0938-0.5947
				c0.0615-0.1826,0.1533-0.3408,0.2744-0.4736c0.1201-0.1338,0.2676-0.2373,0.4424-0.3115
				c0.1738-0.0752,0.3721-0.1123,0.5967-0.1123c0.1631,0,0.3203,0.0215,0.4707,0.0635c0.1514,0.043,0.2861,0.1084,0.4053,0.1953
				s0.2158,0.1953,0.29,0.3242c0.0752,0.1299,0.1172,0.2832,0.1279,0.4609h-0.7402C39.8105,29.0664,39.624,28.9082,39.3008,28.9082z
				"/>
			<path d="M41.7627,30.2295c0.0459,0.0889,0.1074,0.1602,0.1836,0.2158c0.0771,0.0547,0.166,0.0957,0.2695,0.1221
				c0.1025,0.0273,0.209,0.04,0.3193,0.04c0.0752,0,0.1543-0.0059,0.2402-0.0186c0.085-0.0127,0.165-0.0361,0.2393-0.0723
				c0.0752-0.0352,0.1367-0.084,0.1865-0.1465c0.0498-0.0615,0.0752-0.1406,0.0752-0.2363c0-0.1035-0.0332-0.1865-0.0986-0.251
				c-0.0664-0.0635-0.1523-0.1172-0.2588-0.1602c-0.1064-0.042-0.2275-0.0791-0.3623-0.1113s-0.2715-0.0674-0.4102-0.1064
				c-0.1426-0.0361-0.2803-0.0791-0.416-0.1309c-0.1348-0.0518-0.2549-0.1182-0.3623-0.1992
				c-0.1064-0.082-0.1924-0.1846-0.2578-0.3066c-0.0664-0.123-0.0986-0.2705-0.0986-0.4453c0-0.1953,0.042-0.3643,0.125-0.5088
				c0.084-0.1436,0.1924-0.2637,0.3281-0.3594c0.1348-0.0957,0.2871-0.167,0.458-0.2129c0.1699-0.0459,0.3408-0.0693,0.5117-0.0693
				c0.1982,0,0.3896,0.0225,0.5723,0.0664c0.1826,0.0449,0.3457,0.1162,0.4873,0.2158c0.1426,0.0996,0.2549,0.2266,0.3389,0.3809
				c0.083,0.1543,0.125,0.3418,0.125,0.5625h-0.8096c-0.0078-0.1143-0.0312-0.208-0.0723-0.2822
				c-0.041-0.0752-0.0947-0.1338-0.1621-0.1768c-0.0684-0.042-0.1455-0.0723-0.2324-0.0898s-0.1816-0.0273-0.2852-0.0273
				c-0.0674,0-0.1348,0.0078-0.2021,0.0215c-0.0674,0.0146-0.1289,0.0391-0.1836,0.0752c-0.0557,0.0352-0.1006,0.0791-0.1357,0.1328
				c-0.0361,0.0537-0.0537,0.1211-0.0537,0.2021c0,0.0752,0.0146,0.1357,0.043,0.1816s0.084,0.0889,0.168,0.1279
				c0.083,0.0391,0.1982,0.0781,0.3457,0.1172s0.3408,0.0889,0.5781,0.1494c0.0713,0.0137,0.1699,0.04,0.2959,0.0771
				s0.251,0.0967,0.376,0.1777c0.124,0.082,0.2314,0.1914,0.3223,0.3281c0.0898,0.1367,0.1357,0.3115,0.1357,0.5244
				c0,0.1748-0.0342,0.3359-0.1016,0.4854s-0.168,0.2773-0.3008,0.3857s-0.2988,0.1934-0.4951,0.2539
				c-0.1973,0.0596-0.4258,0.0898-0.6855,0.0898c-0.209,0-0.4121-0.0254-0.6094-0.0771c-0.1973-0.0508-0.3711-0.1318-0.5225-0.2422
				c-0.1504-0.1104-0.2705-0.25-0.3594-0.4209s-0.1318-0.373-0.1279-0.6074h0.8096C41.6934,30.0322,41.7168,30.1406,41.7627,30.2295
				z"/>
			<path d="M44.5225,27.9863v-0.623h0.7568v0.623H44.5225z M45.2793,28.4121v2.7549h-0.7568v-2.7549H45.2793z"/>
			<path d="M47.1387,28.9824h-1.3271v-0.5703h2.3232v0.5703l-1.4336,1.6143h1.5352v0.5703h-2.5312v-0.5703L47.1387,28.9824z"/>
			<path d="M49.4512,30.5059c0.1133,0.1104,0.2773,0.166,0.4902,0.166c0.1523,0,0.2842-0.0381,0.3945-0.1152
				c0.1094-0.0762,0.1768-0.1572,0.2021-0.2422h0.666c-0.1064,0.3301-0.2705,0.5664-0.4902,0.709
				c-0.2207,0.1416-0.4863,0.2129-0.7988,0.2129c-0.2168,0-0.4121-0.0352-0.5869-0.1035c-0.1738-0.0693-0.3213-0.168-0.4414-0.2959
				c-0.1211-0.1279-0.2148-0.2812-0.2803-0.458c-0.0654-0.1777-0.0986-0.373-0.0986-0.5869c0-0.2051,0.0342-0.3975,0.1016-0.5752
				s0.1631-0.3311,0.2871-0.4609c0.125-0.1289,0.2734-0.2314,0.4453-0.3057c0.1719-0.0752,0.3633-0.1123,0.5732-0.1123
				c0.2344,0,0.4385,0.0449,0.6123,0.1357s0.3174,0.2119,0.4287,0.3652c0.1123,0.1523,0.1924,0.3271,0.2422,0.5225
				s0.0674,0.3994,0.0537,0.6123h-1.9873C49.2754,30.2188,49.3369,30.3965,49.4512,30.5059z M50.3066,29.0576
				c-0.0908-0.0996-0.2285-0.1494-0.4131-0.1494c-0.1211,0-0.2217,0.0205-0.3018,0.0615c-0.0791,0.04-0.1436,0.0908-0.1914,0.1514
				s-0.082,0.124-0.1016,0.1914c-0.0195,0.0684-0.0303,0.1279-0.0342,0.1816h1.2305C50.46,29.3018,50.3965,29.1562,50.3066,29.0576z
				"/>
			<path d="M10.6904,36.623c0.0464,0.0889,0.1074,0.1602,0.1841,0.2158c0.0762,0.0547,0.166,0.0957,0.269,0.1221
				c0.103,0.0273,0.2095,0.04,0.3193,0.04c0.0747,0,0.1548-0.0059,0.2397-0.0186c0.0854-0.0127,0.1655-0.0361,0.2397-0.0723
				c0.0747-0.0352,0.1367-0.084,0.1865-0.1465c0.0498-0.0615,0.0747-0.1406,0.0747-0.2363c0-0.1035-0.0327-0.1865-0.0986-0.251
				c-0.0654-0.0635-0.1519-0.1172-0.2583-0.1602c-0.1064-0.042-0.2275-0.0791-0.3623-0.1113s-0.2715-0.0674-0.4102-0.1064
				c-0.1421-0.0361-0.2808-0.0791-0.4155-0.1309c-0.1353-0.0518-0.2559-0.1182-0.3623-0.1992
				c-0.1064-0.082-0.1929-0.1846-0.2583-0.3066c-0.0659-0.123-0.0986-0.2705-0.0986-0.4453c0-0.1953,0.0415-0.3643,0.125-0.5088
				c0.0835-0.1436,0.1929-0.2637,0.3276-0.3594c0.1353-0.0957,0.2876-0.167,0.4585-0.2129
				c0.1704-0.0459,0.3408-0.0693,0.5112-0.0693c0.1987,0,0.3896,0.0225,0.5728,0.0664c0.1831,0.0449,0.3452,0.1162,0.4878,0.2158
				c0.1416,0.0996,0.2544,0.2266,0.3379,0.3809s0.1255,0.3418,0.1255,0.5625h-0.8101c-0.0068-0.1143-0.0312-0.208-0.0718-0.2822
				c-0.041-0.0752-0.0952-0.1338-0.1626-0.1768c-0.0674-0.042-0.1445-0.0723-0.2314-0.0898
				c-0.0874-0.0176-0.1821-0.0273-0.2852-0.0273c-0.0679,0-0.1353,0.0078-0.2026,0.0215c-0.0674,0.0146-0.1289,0.0391-0.1836,0.0752
				c-0.0552,0.0352-0.1006,0.0791-0.1362,0.1328c-0.0352,0.0537-0.0532,0.1211-0.0532,0.2021c0,0.0752,0.0142,0.1357,0.043,0.1816
				c0.0283,0.0459,0.084,0.0889,0.1675,0.1279s0.1992,0.0781,0.3467,0.1172c0.147,0.0391,0.3398,0.0889,0.5776,0.1494
				c0.0713,0.0137,0.1699,0.04,0.2959,0.0771s0.2515,0.0967,0.3755,0.1777c0.1245,0.082,0.2319,0.1914,0.3223,0.3281
				c0.0908,0.1367,0.1362,0.3115,0.1362,0.5244c0,0.1748-0.0342,0.3359-0.1016,0.4854s-0.1675,0.2773-0.3008,0.3857
				s-0.2983,0.1934-0.4956,0.2539c-0.1973,0.0596-0.4253,0.0898-0.6846,0.0898c-0.2095,0-0.4131-0.0254-0.6099-0.0771
				c-0.1973-0.0508-0.3716-0.1318-0.5225-0.2422s-0.271-0.25-0.3594-0.4209c-0.0889-0.1709-0.1313-0.373-0.1279-0.6074h0.8096
				C10.6211,36.4258,10.6445,36.5342,10.6904,36.623z"/>
			<path d="M14.9419,34.8057v0.5068h-0.5542v1.3633c0,0.1279,0.0215,0.2139,0.064,0.2559c0.043,0.043,0.1279,0.0645,0.2559,0.0645
				c0.0425,0,0.0835-0.002,0.1226-0.0059c0.0391-0.0029,0.0762-0.0088,0.1118-0.0156v0.5859
				c-0.064,0.0107-0.1348,0.0176-0.2129,0.0215c-0.0781,0.0029-0.1548,0.0049-0.2295,0.0049c-0.1172,0-0.228-0.0078-0.333-0.0234
				c-0.1045-0.0166-0.1968-0.0469-0.2769-0.0938c-0.0801-0.0459-0.1431-0.1113-0.189-0.1973
				c-0.0464-0.085-0.0693-0.1963-0.0693-0.335v-1.625h-0.4585v-0.5068h0.4585v-0.8252h0.7563v0.8252H14.9419z"/>
			<path d="M16.3218,38.3809c-0.1455,0.0957-0.3481,0.1436-0.6074,0.1436c-0.0781,0-0.1553-0.002-0.2314-0.0078
				c-0.0767-0.0049-0.1538-0.0117-0.2319-0.0186v-0.623c0.0713,0.0068,0.144,0.0137,0.2183,0.0215
				c0.0747,0.0068,0.1494,0.0088,0.2241,0.0049c0.0991-0.0107,0.1729-0.0498,0.2212-0.1172
				c0.0479-0.0674,0.0718-0.1416,0.0718-0.2236c0-0.0605-0.0107-0.1172-0.0322-0.1709l-0.9644-2.584h0.8047l0.6235,1.8867h0.0107
				l0.6021-1.8867h0.7832l-1.1509,3.0957C16.5811,38.125,16.4678,38.2852,16.3218,38.3809z"/>
			<path d="M18.8472,33.7568v3.8037h-0.7563v-3.8037H18.8472z"/>
			<path d="M20.2539,36.8994c0.1133,0.1104,0.2769,0.166,0.4902,0.166c0.1523,0,0.2842-0.0381,0.3945-0.1152
				c0.1094-0.0762,0.1777-0.1572,0.2021-0.2422h0.666c-0.1064,0.3301-0.2695,0.5664-0.4902,0.709
				c-0.2197,0.1416-0.4863,0.2129-0.7993,0.2129c-0.2168,0-0.4121-0.0352-0.5859-0.1035c-0.1743-0.0693-0.3218-0.168-0.4424-0.2959
				s-0.2139-0.2812-0.2798-0.458c-0.0654-0.1777-0.0986-0.373-0.0986-0.5869c0-0.2051,0.0337-0.3975,0.1016-0.5752
				c0.0674-0.1777,0.1631-0.3311,0.2876-0.4609c0.1245-0.1289,0.2725-0.2314,0.4448-0.3057
				c0.1724-0.0752,0.3633-0.1123,0.5728-0.1123c0.2344,0,0.439,0.0449,0.6128,0.1357c0.1748,0.0908,0.3174,0.2119,0.4287,0.3652
				c0.1123,0.1523,0.1934,0.3271,0.2432,0.5225s0.0674,0.3994,0.0537,0.6123h-1.9883C20.0781,36.6123,20.1401,36.79,20.2539,36.8994
				z M21.1094,35.4512c-0.0908-0.0996-0.2285-0.1494-0.4136-0.1494c-0.1206,0-0.2207,0.0205-0.3008,0.0615
				c-0.0801,0.04-0.144,0.0908-0.1919,0.1514s-0.0815,0.124-0.1011,0.1914c-0.0195,0.0684-0.0312,0.1279-0.0347,0.1816h1.2305
				C21.2627,35.6953,21.2002,35.5498,21.1094,35.4512z"/>
			<path d="M24.25,33.666l-1.4863,3.9795h-0.6025l1.4814-3.9795H24.25z"/>
			<path class="st0" d="M26.4561,33.7568l1.4219,3.8037h-0.8682l-0.2881-0.8467h-1.4219l-0.2988,0.8467h-0.8418l1.4385-3.8037
				H26.4561z M26.5039,36.0898l-0.4795-1.3955h-0.0107l-0.4961,1.3955H26.5039z"/>
			<path d="M28.8477,34.8057v0.3838h0.0166c0.0957-0.1592,0.2197-0.2764,0.3721-0.3486c0.1533-0.0732,0.3096-0.1094,0.4697-0.1094
				c0.2021,0,0.3682,0.0273,0.498,0.083c0.1289,0.0547,0.2314,0.1309,0.3057,0.2285c0.0752,0.0977,0.127,0.2168,0.1572,0.3574
				c0.0303,0.1396,0.0459,0.2949,0.0459,0.4658v1.6943h-0.7568v-1.5557c0-0.2275-0.0352-0.3975-0.1064-0.5088
				c-0.0713-0.1123-0.1973-0.168-0.3789-0.168c-0.2061,0-0.3545,0.0615-0.4473,0.1836c-0.0918,0.123-0.1387,0.3242-0.1387,0.6045
				v1.4443h-0.7559v-2.7549H28.8477z"/>
			<path d="M33.2441,37.209c-0.0889,0.1494-0.2051,0.2568-0.3486,0.3223c-0.1445,0.0654-0.3066,0.0986-0.4883,0.0986
				c-0.2061,0-0.3867-0.04-0.543-0.1201s-0.2852-0.1885-0.3867-0.3252c-0.1006-0.1367-0.1777-0.2939-0.2285-0.4707
				c-0.0518-0.1777-0.0771-0.3623-0.0771-0.5547c0-0.1846,0.0254-0.3633,0.0771-0.5352c0.0508-0.1729,0.1279-0.3242,0.2285-0.4561
				c0.1016-0.1309,0.2285-0.2363,0.3809-0.3164c0.1533-0.0801,0.3311-0.1201,0.5332-0.1201c0.1631,0,0.3184,0.0342,0.4658,0.1035
				s0.2637,0.1719,0.3496,0.3066h0.0107v-1.3848h0.7559v3.8037h-0.7188V37.209H33.2441z M33.2119,35.8477
				c-0.0215-0.1045-0.0576-0.1973-0.1094-0.2773c-0.0508-0.0801-0.1182-0.1445-0.1992-0.1943
				c-0.082-0.0498-0.1846-0.0742-0.3096-0.0742c-0.124,0-0.2285,0.0244-0.3145,0.0742c-0.085,0.0498-0.1533,0.1152-0.2051,0.1973
				c-0.0508,0.082-0.0889,0.1748-0.1113,0.2793c-0.0234,0.1055-0.0352,0.2148-0.0352,0.3281c0,0.1064,0.0127,0.2129,0.0371,0.3193
				c0.0254,0.1064,0.0654,0.2021,0.1201,0.2852c0.0557,0.084,0.125,0.1514,0.208,0.2031c0.083,0.0508,0.1836,0.0771,0.3008,0.0771
				c0.125,0,0.2285-0.0254,0.3115-0.0752c0.084-0.0498,0.1504-0.1162,0.2002-0.1992c0.0498-0.084,0.085-0.1787,0.1064-0.2852
				s0.0322-0.2168,0.0322-0.3301C33.2441,36.0615,33.2334,35.9521,33.2119,35.8477z"/>
			<path d="M34.5859,34.8828c0.0859-0.2432,0.208-0.4551,0.3682-0.6357c0.1592-0.1816,0.3555-0.3232,0.5889-0.4268
				c0.2324-0.1025,0.4941-0.1543,0.7852-0.1543c0.2949,0,0.5576,0.0518,0.7891,0.1543c0.2305,0.1035,0.4258,0.2451,0.5859,0.4268
				c0.1602,0.1807,0.2822,0.3926,0.3672,0.6357c0.0859,0.2441,0.1279,0.5078,0.1279,0.792c0,0.2764-0.042,0.5352-0.1279,0.7744
				c-0.085,0.2402-0.207,0.4492-0.3672,0.627c-0.1602,0.1768-0.3555,0.3164-0.5859,0.418
				c-0.2314,0.1006-0.4941,0.1514-0.7891,0.1514c-0.291,0-0.5527-0.0508-0.7852-0.1514c-0.2334-0.1016-0.4297-0.2412-0.5889-0.418
				c-0.1602-0.1777-0.2822-0.3867-0.3682-0.627c-0.085-0.2393-0.1279-0.498-0.1279-0.7744
				C34.458,35.3906,34.501,35.127,34.5859,34.8828z M35.3506,36.1406c0.0371,0.1514,0.0967,0.2871,0.1787,0.4072
				c0.082,0.1211,0.1885,0.2178,0.3193,0.291c0.1318,0.0723,0.291,0.1094,0.4795,0.1094s0.3486-0.0371,0.4795-0.1094
				c0.1318-0.0732,0.2383-0.1699,0.3203-0.291c0.0811-0.1201,0.1406-0.2559,0.1777-0.4072
				c0.0381-0.1514,0.0566-0.3066,0.0566-0.4658c0-0.167-0.0186-0.3291-0.0566-0.4854c-0.0371-0.1562-0.0967-0.2959-0.1777-0.418
				c-0.082-0.123-0.1885-0.2207-0.3203-0.293c-0.1309-0.0732-0.291-0.1094-0.4795-0.1094s-0.3477,0.0361-0.4795,0.1094
				c-0.1309,0.0723-0.2373,0.1699-0.3193,0.293c-0.082,0.1221-0.1416,0.2617-0.1787,0.418s-0.0557,0.3184-0.0557,0.4854
				C35.2949,35.834,35.3135,35.9893,35.3506,36.1406z"/>
			<path d="M39.4082,34.8057v0.5117h0.0107c0.0352-0.085,0.083-0.1641,0.1436-0.2373c0.0605-0.0723,0.1299-0.1348,0.208-0.1865
				c0.0781-0.0508,0.1621-0.0908,0.251-0.1191c0.0879-0.0283,0.1807-0.043,0.2764-0.043c0.0498,0,0.1045,0.0088,0.165,0.0264v0.7031
				c-0.0352-0.0068-0.0781-0.0127-0.1279-0.0186c-0.0498-0.0049-0.0977-0.0078-0.1436-0.0078c-0.1387,0-0.2559,0.0234-0.3516,0.0693
				s-0.1729,0.1094-0.2314,0.1895s-0.1006,0.1729-0.125,0.2793c-0.0254,0.1064-0.0381,0.2227-0.0381,0.3467v1.2412h-0.7559v-2.7549
				H39.4082z"/>
		</g>
	</g>
</g>
</svg>
